<?xml version="1.0" encoding="utf-8"?>
<!-- Generator: Adobe Illustrator 19.0.0, SVG Export Plug-In . SVG Version: 6.00 Build 0)  -->
<svg version="1.1" xmlns="http://www.w3.org/2000/svg" xmlns:xlink="http://www.w3.org/1999/xlink" x="0px" y="0px"
	 viewBox="0 0 282 282" style="0 0 282 282;" xml:space="preserve">
<style type="text/css">
	.spn-color {
		fill:none;
		stroke:#999;
		stroke-width:6;
		stroke-miterlimit:10;
	}
</style>
<g id="custom-spinner">
	<circle id="XMLID_1_" class="spn-color" cx="141" cy="141" r="63"/>
</g>
<g id="Layer_2">
	<g id="XMLID_2_">
		<g id="XMLID_19_">
			<path id="XMLID_20_" class="spn-color" d="M51.8,154.1c0,1.3,0,2.6,0,4c0,5.1-0.1,10-0.4,14.7H61c0-0.2,0-0.5,0-0.7
				C61.1,164.5,57.4,157.9,51.8,154.1z"/>
			<path id="XMLID_21_" class="spn-color" d="M28.5,154.1c-5.6,3.9-9.2,10.5-9.2,18c0,0.2,0,0.5,0,0.7h9.6c-0.3-4.7-0.4-9.6-0.4-14.7
				C28.5,156.7,28.5,155.4,28.5,154.1z"/>
		</g>
		<path id="XMLID_18_" class="spn-color" d="M51.4,172.7c0.3-4.7,0.4-9.6,0.4-14.7c0-31.1-5.2-56.3-11.7-56.3c-6.4,0-11.7,25.2-11.7,56.3
			c0,5.1,0.1,10,0.4,14.7H51.4z"/>
	</g>
</g>
</svg>
